<svg width="290" height="1331" viewBox="0 0 290 1331" fill="none" xmlns="http://www.w3.org/2000/svg">
<g clip-path="url(#clip0_300_1066)">
<path d="M290 0H0V1331H290V0Z" fill="#3182CE"/>
<path d="M244.063 586.324C300.135 371.598 626.266 165.777 626.266 165.777L341.5 1501L-248 1330.97C-248 1330.97 -105.812 1247.86 -50.5712 1163.05C-14.6569 1107.91 -19.2242 1064.27 13.6702 1007.28C73.4497 903.709 184.25 898.616 225.868 786.507C253.188 712.915 224.23 662.275 244.063 586.324Z" fill="white" fill-opacity="0.11"/>
<path d="M137.073 498.376C193.788 267.888 565.18 57.8 565.18 57.8L286.887 1493.58L-406 1285.83C-406 1285.83 -243.815 1201.43 -182.896 1111.71C-143.29 1053.38 -150.343 1005.9 -114.326 945.438C-48.8709 835.567 79.8867 834.458 123.864 714.61C152.732 635.939 117.012 579.903 137.073 498.376Z" fill="white" fill-opacity="0.05"/>
<path d="M55.0764 421.585C103.186 187.548 538.491 3.81812 538.491 3.81812L330.636 1468.65L-537 1188.83C-537 1188.83 -346.226 1116.22 -279.938 1028.71C-236.841 971.823 -249.873 921.875 -211.367 862.443C-141.391 754.436 16.1633 765.203 58.918 644.851C86.9832 565.849 38.0592 504.367 55.0764 421.585Z" fill="white" fill-opacity="0.05"/>
</g>
<defs>
<clipPath id="clip0_300_1066">
<rect width="290" height="1331" fill="white"/>
</clipPath>
</defs>
</svg>
